# xmcd
#
# Track frame offsets: 
#        150
#        11909
#        26215
#        43395
#        58445
#        71638
#        86563
#        101448
#        113528
#        127363
#        144927
#
# Disc length: 2149 seconds
#
# Revision: 0
# Processed by: cddbd v1.5.2PL0 Copyright (c) Steve Scherf et al.
# Submitted via: ExactAudioCopy v1.3
#
DISCID=a508630b
DTITLE=Gord Bamford - Christmas In Canada
DYEAR=2013
DGENRE=Country
TTITLE0=Alberta Christmas Morning
TTITLE1=Winter Wonderland
TTITLE2=Away In A Manger
TTITLE3=Baseball Glove
TTITLE4=Daddy's Beer
TTITLE5=Jingle Bells
TTITLE6=Christmas In Canada
TTITLE7=Santa Looked A Lot Like Daddy
TTITLE8=Rudolph, The Red-Nosed Reindeer
TTITLE9=O Holy Night
TTITLE10=The Christmas Song
EXTD=
EXTT0=
EXTT1=
EXTT2=
EXTT3=
EXTT4=
EXTT5=
EXTT6=
EXTT7=
EXTT8=
EXTT9=
EXTT10=
PLAYORDER=
